<svg xmlns="http://www.w3.org/2000/svg" width="290" viewBox="0 0 217.5 113.999999" height="152" version="1.0"><defs><clipPath id="a"><path d="M185 70h29v21h-29Zm0 0"/></clipPath><clipPath id="b"><path d="m216.480469 87.792969-22 11.214843-11.214844-22 22-11.214843Zm0 0"/></clipPath><clipPath id="c"><path d="m216.480469 87.792969-22 11.214843-11.214844-22 22-11.214843Zm0 0"/></clipPath><clipPath id="d"><path d="M54 65h29v21H54Zm0 0"/></clipPath><clipPath id="e"><path d="m85.574219 83.414062-22.4375 10.308594L52.828125 71.28125l22.4375-10.308594Zm0 0"/></clipPath><clipPath id="f"><path d="m85.574219 83.414062-22.4375 10.308594L52.828125 71.28125l22.4375-10.308594Zm0 0"/></clipPath></defs><path fill="#a00" d="M143.898438 81.5c-17.867188-1.152344-33.03125-4.683594-47.394532-11.035156-21.964844-9.710938-32.835937-9.902344-41.5-.726563l-2.988281 3.164063 2.097656-3.105469C55.324219 68 60.910156 63.871094 60.910156 63.871094l5.882813-2.242188 6.929687-1.046875 8.125.582031L89.875 63.15625c4.417969 1.09375 10.046875 3.757812 12.691406 4.972656C113.777344 73.28125 148.203125 78.25 172.703125 78.25h6.355469l3.375-4.238281c1.851562-2.328125 4.945312-5.207031 6.871094-6.390625 3.640624-2.242188 13.648437-4.097656 11.378906-2.109375-.652344.570312-2.175782 1.042969-3.382813 1.050781-4.5625.03125-12.699219 6.917969-15.238281 12.90625l-1.136719 2.671875-16.34375-.179687c-8.992187-.097657-18.296875-.304688-20.683593-.460938ZM32.042969 75.214844l-2.625-.949219 2.621093-2.175781c2.898438-2.410156 3.734376-4.964844 1.90625-5.832032-.65625-.3125-3.246093.125-5.757812.96875-6.167969 2.070313-13.25 1.972657-17.179688-.238281l-3.15625-1.769531 5.691407-.539062c4.03125-.378907 6.101562-1.050782 7.097656-2.300782l1.40625-1.761718-1.792969-1.816407c-1.007812-1.019531-3.777344-2.109375-6.3125-2.488281-5.335937-.792969-9.335937-2.660156-11.796875-5.515625-2.457031-2.847656-2.2343748-3.765625.617188-2.539063 1.710937.734376 4.109375.71875 8.3125-.050781 7.523437-1.378906 13.089843-1.375 18.714843.019531L34.25 49.332031l1.230469-1.261719c3.566406-3.652343-1.621094-9.539062-9.832031-9.957031l-5.179688-.261719 1.269531-1.394531c.820313-.898437 4.269531-1.292969 6.792969-1.617187l4.511719.007812 6.605469 1.945313c7.082031 2.085937 12.304687 3.277343 13.238281 1.417969.90625-1.8125-3.835938-6.28125-9.289063-8.761719l-4.988281-2.269531 2.609375-.308594c7.058594-.835938 19.070312 3.59375 23.46875 8.652344l1.628906 1.871093h4.828125c5.246094 0 12.089844-1.703125 19.519531-4.863281 10.976563-4.667969 33.414063-6.402344 44.691407-3.457031 6.800781 1.78125 18.691406 7.929687 26.78125 13.855469l6.390625 4.679687-4.425782.292969-4.425781.289062-3.582031-3.039062c-4.417969-3.75-13.738281-9.015625-18.558594-10.488282-12.238281-3.734374-27.386718-3.226562-41.351562 1.390626-11.890625 3.929687-24.910156 7.179687-31.351563 7.824218-6.152343.617188-7.613281 1.515625-4.335937 2.667969 10.667968 3.753906 43.695312 10.34375 69.996094 13.96875l12.222656 1.683594-11.433594.28125c-13.726562.335937-33.292969-1.796875-47.09375-5.132813-10.820312-2.613281-17.03125-3.023437-21.667969-1.4375-3.996093 1.371094-9.707031 8.132813-12.296875 14.558594l-2.152344 5.351562-6.703124.171876c-3.683594.09375-7.882813-.253907-9.324219-.777344Zm179.679687-5.863282c-1.816406-2.53125-4.453125-4.671874-7.730468-6.285156l-4.96875-2.445312-19.480469-.878906c-39.839844-1.796876-58.738281-4.277344-73.265625-9.613282-5.976563-2.199218-12.855469-7.101562-12.855469-9.171875 0-2.320312 15.433594-5.507812 26.660156-5.507812 14.523438 0 24.554688 3.363281 33.394531 11.195312l3.832032 3.394531h5.015625c6.59375 0 27.371093 2.59375 34.769531 4.339844 6.773438 1.597656 10.0625 3.441406 13.660156 7.652344 2.152344 2.519531 4.839844 9.863281 3.980469 10.871094-.136719.160156-1.492187-1.4375-3.011719-3.550782ZM147.445312 48.46875c-4.796874-4.28125-10.410156-7.464844-16.082031-9.121094-7.546875-2.203125-32.417969.066406-32.417969 2.960938 0 1.082031 7.304688 4.339844 13.011719 5.800781 6.921875 1.769531 22.492188 3.625 31.542969 3.757813l7.886719.117187Zm0 0"/><g clip-path="url(#a)"><g clip-path="url(#b)"><g clip-path="url(#c)"><path fill="#a00" d="M211.867188 90.144531c.648437-3.027343.296874-6.289062-1.21875-9.261719-3.507813-6.878906-11.925782-9.613281-18.804688-6.105468-2.976562 1.515625-5.171875 3.949218-6.429688 6.785156.851563-3.976562 3.417969-7.550781 7.324219-9.542969 6.878907-3.503906 15.300781-.773437 18.804688 6.105469 1.992187 3.90625 1.96875 8.304688.324219 12.019531Zm0 0"/></g></g></g><g clip-path="url(#d)"><g clip-path="url(#e)"><g clip-path="url(#f)"><path fill="#a00" d="M80.867188 85.574219c.773437-2.996094.554687-6.273438-.839844-9.304688-3.222656-7.015625-11.523438-10.089843-18.539063-6.867187-3.035156 1.394531-5.328125 3.738281-6.699219 6.519531 1.011719-3.9375 3.722657-7.40625 7.707032-9.234375 7.015625-3.222656 15.316406-.152344 18.539062 6.867188 1.832032 3.980468 1.628906 8.375-.167968 12.019531Zm0 0"/></g></g></g></svg>