<svg xmlns="http://www.w3.org/2000/svg" viewBox="0 0 375 374.999991" version="1.0"><defs><clipPath id="a"><path d="M235 200h19v14h-19Zm0 0"/></clipPath><clipPath id="b"><path d="m255.417969 211.550781-14.699219 7.496094-7.15625-14.03125 14.699219-7.496094Zm0 0"/></clipPath><clipPath id="c"><path d="m255.417969 211.550781-14.699219 7.496094-7.15625-14.03125 14.699219-7.496094Zm0 0"/></clipPath><clipPath id="d"><path d="M150 197h19v14h-19Zm0 0"/></clipPath><clipPath id="e"><path d="m170.492188 209.023438-14.996094 6.890624-6.574219-14.3125 14.992187-6.890624Zm0 0"/></clipPath><clipPath id="f"><path d="m170.492188 209.023438-14.996094 6.890624-6.574219-14.3125 14.992187-6.890624Zm0 0"/></clipPath></defs><path fill="#a00" d="M208.128906 207.558594c-11.578125-.746094-21.40625-3.035156-30.714844-7.152344-14.234374-6.292969-21.28125-6.417969-26.894531-.472656l-1.933593 2.050781 1.355468-2.011719c.785156-1.164062 4.40625-3.839844 4.40625-3.839844l3.8125-1.453124L162.652344 194l5.265625.378906 5.199219 1.289063c2.867187.710937 6.511718 2.4375 8.226562 3.222656 7.261719 3.339844 29.574219 6.5625 45.453125 6.5625h4.117187l2.1875-2.746094c1.199219-1.511719 3.203126-3.375 4.453126-4.144531 2.359374-1.453125 8.84375-2.65625 7.375-1.367188-.421876.371094-1.410157.675782-2.195313.683594-2.957031.019532-8.226563 4.484375-9.875 8.363282l-.734375 1.730468-10.59375-.117187c-5.824219-.0625-11.855469-.195313-13.402344-.296875Zm-72.488281-4.074219-1.699219-.613281 1.695313-1.410156c1.878906-1.5625 2.421875-3.21875 1.234375-3.78125-.421875-.199219-2.101563.082031-3.730469.628906-3.996094 1.339844-8.585937 1.277344-11.132813-.152344l-2.046874-1.152344 3.691406-.34375c2.609375-.246094 3.953125-.683594 4.597656-1.492187l.914062-1.144531L128 192.847656c-.652344-.660156-2.449219-1.367187-4.089844-1.613281-3.460937-.511719-6.050781-1.722656-7.644531-3.574219-1.59375-1.84375-1.449219-2.441406.398437-1.644531 1.109376.476563 2.664063.464844 5.386719-.035156 4.875-.894531 8.484375-.890625 12.128907.015625l2.890624.714844.796876-.820313c2.3125-2.363281-1.050782-6.179687-6.371094-6.449219l-3.355469-.171875.824219-.902343c.53125-.582032 2.765625-.839844 4.398437-1.050782l2.925781.007813 4.28125 1.261719c4.585938 1.351562 7.972657 2.125 8.578126.917968.585937-1.175781-2.484376-4.070312-6.019532-5.679687l-3.234375-1.46875 1.691407-.199219c4.574218-.542969 12.359374 2.328125 15.210937 5.605469l1.054687 1.214843h3.128907c3.398437 0 7.832031-1.105468 12.648437-3.152343 7.113282-3.027344 21.65625-4.152344 28.964844-2.238281 4.40625 1.148437 12.113281 5.136718 17.355469 8.976562l4.140625 3.03125-2.867188.191406-2.871094.1875-2.320312-1.96875c-2.863281-2.429687-8.902344-5.84375-12.027344-6.796875-7.929687-2.421875-17.746094-2.09375-26.796875.898438-7.707031 2.546875-16.144531 4.652343-20.316406 5.070312-3.988281.402344-4.933594.984375-2.8125 1.730469 6.914063 2.429688 28.316406 6.703125 45.363281 9.050781l7.921875 1.09375-7.414062.179688c-8.894531.21875-21.574219-1.164063-30.515625-3.324219-7.011719-1.695312-11.039063-1.960938-14.042969-.929688-2.589844.886719-6.292969 5.265626-7.96875 9.433594l-1.394531 3.464844-4.34375.113281c-2.390625.0625-5.109375-.164062-6.042969-.503906Zm116.441406-3.800781c-1.179687-1.640625-2.886719-3.027344-5.007812-4.070313l-3.222657-1.585937-12.621093-.570313c-25.820313-1.164062-38.066407-2.773437-47.484375-6.230469-3.871094-1.421874-8.328125-4.601562-8.328125-5.941406 0-1.503906 10-3.570312 17.277343-3.570312 9.410157 0 15.914063 2.179687 21.640626 7.253906l2.484374 2.203125h3.25c4.273438 0 17.738282 1.679687 22.53125 2.808594 4.390626 1.035156 6.519532 2.230469 8.851563 4.960937 1.394531 1.632813 3.140625 6.390625 2.582031 7.042969-.089844.105469-.96875-.929687-1.953125-2.300781Zm-41.65625-13.53125c-3.109375-2.773438-6.746093-4.839844-10.421875-5.910156-4.890625-1.429688-21.007812.042968-21.007812 1.917968 0 .703125 4.734375 2.8125 8.433594 3.757813 4.484374 1.148437 14.574218 2.347656 20.441406 2.4375l5.109375.074219Zm0 0"/><g clip-path="url(#a)"><g clip-path="url(#b)"><g clip-path="url(#c)"><path fill="#a00" d="M252.421875 213.078125c.421875-1.960937.191406-4.078125-.789063-6.003906-2.273437-4.460938-7.734374-6.234375-12.195312-3.960938-1.929688.984375-3.351562 2.5625-4.167969 4.402344.550781-2.578125 2.21875-4.894531 4.75-6.1875 4.460938-2.273437 9.917969-.503906 12.191407 3.957031 1.292968 2.53125 1.277343 5.386719.210937 7.792969Zm0 0"/></g></g></g><g clip-path="url(#d)"><g clip-path="url(#e)"><g clip-path="url(#f)"><path fill="#a00" d="M167.4375 210.429688c.5-1.945313.355469-4.070313-.546875-6.035157-2.089844-4.546875-7.472656-6.542969-12.019531-4.453125-1.96875.90625-3.457032 2.425782-4.34375 4.226563.652344-2.550781 2.414062-4.800781 4.996094-5.988281 4.546874-2.085938 9.929687-.09375 12.019531 4.453124 1.1875 2.582032 1.058593 5.433594-.105469 7.796876Zm0 0"/></g></g></g></svg>
