<svg xmlns="http://www.w3.org/2000/svg" xmlns:xlink="http://www.w3.org/1999/xlink" width="290" zoomAndPan="magnify" viewBox="0 0 217.5 113.999999" height="152" preserveAspectRatio="xMidYMid meet" version="1.0"><defs><clipPath id="3acb68e254"><path d="M 185 70 L 214 70 L 214 91 L 185 91 Z M 185 70 " clip-rule="nonzero"/></clipPath><clipPath id="f092a34514"><path d="M 216.480469 87.792969 L 194.480469 99.007812 L 183.265625 77.007812 L 205.265625 65.792969 Z M 216.480469 87.792969 " clip-rule="nonzero"/></clipPath><clipPath id="2b1156fca8"><path d="M 216.480469 87.792969 L 194.480469 99.007812 L 183.265625 77.007812 L 205.265625 65.792969 Z M 216.480469 87.792969 " clip-rule="nonzero"/></clipPath><clipPath id="6035d6b4fb"><path d="M 54 65 L 83 65 L 83 86 L 54 86 Z M 54 65 " clip-rule="nonzero"/></clipPath><clipPath id="22e0478f9b"><path d="M 85.574219 83.414062 L 63.136719 93.722656 L 52.828125 71.28125 L 75.265625 60.972656 Z M 85.574219 83.414062 " clip-rule="nonzero"/></clipPath><clipPath id="612c556b55"><path d="M 85.574219 83.414062 L 63.136719 93.722656 L 52.828125 71.28125 L 75.265625 60.972656 Z M 85.574219 83.414062 " clip-rule="nonzero"/></clipPath></defs><path fill="#aa0000" d="M 143.898438 81.5 C 126.03125 80.347656 110.867188 76.816406 96.503906 70.464844 C 74.539062 60.753906 63.667969 60.5625 55.003906 69.738281 L 52.015625 72.902344 L 54.113281 69.796875 C 55.324219 68 60.910156 63.871094 60.910156 63.871094 L 66.792969 61.628906 L 73.722656 60.582031 L 81.847656 61.164062 L 89.875 63.15625 C 94.292969 64.25 99.921875 66.914062 102.566406 68.128906 C 113.777344 73.28125 148.203125 78.25 172.703125 78.25 L 179.058594 78.25 L 182.433594 74.011719 C 184.285156 71.683594 187.378906 68.804688 189.304688 67.621094 C 192.945312 65.378906 202.953125 63.523438 200.683594 65.511719 C 200.03125 66.082031 198.507812 66.554688 197.300781 66.5625 C 192.738281 66.59375 184.601562 73.480469 182.0625 79.46875 L 180.925781 82.140625 L 164.582031 81.960938 C 155.589844 81.863281 146.285156 81.65625 143.898438 81.5 Z M 32.042969 75.214844 L 29.417969 74.265625 L 32.039062 72.089844 C 34.9375 69.679688 35.773438 67.125 33.945312 66.257812 C 33.289062 65.945312 30.699219 66.382812 28.1875 67.226562 C 22.019531 69.296875 14.9375 69.199219 11.007812 66.988281 L 7.851562 65.21875 L 13.542969 64.679688 C 17.574219 64.300781 19.644531 63.628906 20.640625 62.378906 L 22.046875 60.617188 L 20.253906 58.800781 C 19.246094 57.78125 16.476562 56.691406 13.941406 56.3125 C 8.605469 55.519531 4.605469 53.652344 2.144531 50.796875 C -0.3125 47.949219 -0.0898438 47.03125 2.761719 48.257812 C 4.472656 48.992188 6.871094 48.976562 11.074219 48.207031 C 18.597656 46.828125 24.164062 46.832031 29.789062 48.226562 L 34.25 49.332031 L 35.480469 48.070312 C 39.046875 44.417969 33.859375 38.53125 25.648438 38.113281 L 20.46875 37.851562 L 21.738281 36.457031 C 22.558594 35.558594 26.007812 35.164062 28.53125 34.839844 L 33.042969 34.847656 L 39.648438 36.792969 C 46.730469 38.878906 51.953125 40.070312 52.886719 38.210938 C 53.792969 36.398438 49.050781 31.929688 43.597656 29.449219 L 38.609375 27.179688 L 41.21875 26.871094 C 48.277344 26.035156 60.289062 30.464844 64.6875 35.523438 L 66.316406 37.394531 L 71.144531 37.394531 C 76.390625 37.394531 83.234375 35.691406 90.664062 32.53125 C 101.640625 27.863281 124.078125 26.128906 135.355469 29.074219 C 142.15625 30.855469 154.046875 37.003906 162.136719 42.929688 L 168.527344 47.609375 L 164.101562 47.902344 L 159.675781 48.191406 L 156.09375 45.152344 C 151.675781 41.402344 142.355469 36.136719 137.535156 34.664062 C 125.296875 30.929688 110.148438 31.4375 96.183594 36.054688 C 84.292969 39.984375 71.273438 43.234375 64.832031 43.878906 C 58.679688 44.496094 57.21875 45.394531 60.496094 46.546875 C 71.164062 50.300781 104.191406 56.890625 130.492188 60.515625 L 142.714844 62.199219 L 131.28125 62.480469 C 117.554688 62.816406 97.988281 60.683594 84.1875 57.347656 C 73.367188 54.734375 67.15625 54.324219 62.519531 55.910156 C 58.523438 57.28125 52.8125 64.042969 50.222656 70.46875 L 48.070312 75.820312 L 41.367188 75.992188 C 37.683594 76.085938 33.484375 75.738281 32.042969 75.214844 Z M 211.722656 69.351562 C 209.90625 66.820312 207.269531 64.679688 203.992188 63.066406 L 199.023438 60.621094 L 179.542969 59.742188 C 139.703125 57.945312 120.804688 55.464844 106.277344 50.128906 C 100.300781 47.929688 93.421875 43.027344 93.421875 40.957031 C 93.421875 38.636719 108.855469 35.449219 120.082031 35.449219 C 134.605469 35.449219 144.636719 38.8125 153.476562 46.644531 L 157.308594 50.039062 L 162.324219 50.039062 C 168.917969 50.039062 189.695312 52.632812 197.09375 54.378906 C 203.867188 55.976562 207.15625 57.820312 210.753906 62.03125 C 212.90625 64.550781 215.59375 71.894531 214.734375 72.902344 C 214.597656 73.0625 213.242188 71.464844 211.722656 69.351562 Z M 147.445312 48.46875 C 142.648438 44.1875 137.035156 41.003906 131.363281 39.347656 C 123.816406 37.144531 98.945312 39.414062 98.945312 42.308594 C 98.945312 43.390625 106.25 46.648438 111.957031 48.109375 C 118.878906 49.878906 134.449219 51.734375 143.5 51.867188 L 151.386719 51.984375 Z M 147.445312 48.46875 " fill-opacity="1" fill-rule="nonzero"/><g clip-path="url(#3acb68e254)"><g clip-path="url(#f092a34514)"><g clip-path="url(#2b1156fca8)"><path fill="#aa0000" d="M 211.867188 90.144531 C 212.515625 87.117188 212.164062 83.855469 210.648438 80.882812 C 207.140625 74.003906 198.722656 71.269531 191.84375 74.777344 C 188.867188 76.292969 186.671875 78.726562 185.414062 81.5625 C 186.265625 77.585938 188.832031 74.011719 192.738281 72.019531 C 199.617188 68.515625 208.039062 71.246094 211.542969 78.125 C 213.535156 82.03125 213.511719 86.429688 211.867188 90.144531 Z M 211.867188 90.144531 " fill-opacity="1" fill-rule="nonzero"/></g></g></g><g clip-path="url(#6035d6b4fb)"><g clip-path="url(#22e0478f9b)"><g clip-path="url(#612c556b55)"><path fill="#aa0000" d="M 80.867188 85.574219 C 81.640625 82.578125 81.421875 79.300781 80.027344 76.269531 C 76.804688 69.253906 68.503906 66.179688 61.488281 69.402344 C 58.453125 70.796875 56.160156 73.140625 54.789062 75.921875 C 55.800781 71.984375 58.511719 68.515625 62.496094 66.6875 C 69.511719 63.464844 77.8125 66.535156 81.035156 73.554688 C 82.867188 77.535156 82.664062 81.929688 80.867188 85.574219 Z M 80.867188 85.574219 " fill-opacity="1" fill-rule="nonzero"/></g></g></g></svg>