<svg xmlns="http://www.w3.org/2000/svg" xmlns:xlink="http://www.w3.org/1999/xlink" width="40" zoomAndPan="magnify" viewBox="0 0 30 36.000001" height="48" preserveAspectRatio="xMidYMid meet" version="1.0"><defs><clipPath id="e4137b6c14"><path d="M 4.773438 2.105469 L 25.203125 2.105469 L 25.203125 32.753906 L 4.773438 32.753906 Z M 4.773438 2.105469 " clip-rule="nonzero"/></clipPath></defs><g clip-path="url(#e4137b6c14)"><path fill="#000000" d="M 14.011719 2.097656 C 12.425781 2.097656 11.140625 3.523438 11.140625 5.277344 C 11.140625 6.605469 11.890625 7.796875 13.015625 8.257812 L 13.015625 8.941406 L 10.714844 9.863281 C 9.65625 10.289062 8.894531 11.222656 8.691406 12.339844 L 6.761719 22.925781 L 7.179688 23.136719 L 5.179688 26.285156 L 4.792969 26.78125 L 4.839844 26.816406 L 4.808594 26.871094 L 5.339844 27.207031 L 5.835938 27.589844 L 5.871094 27.542969 L 5.925781 27.574219 L 6.257812 27.050781 C 6.789062 26.375 7.40625 25.769531 8.085938 25.242188 L 7.785156 23.4375 L 7.179688 23.136719 L 15.960938 9.324219 L 17.207031 9.824219 L 18.449219 7.867188 L 18.804688 7.3125 L 17.6875 6.605469 L 17.332031 7.164062 L 15.960938 9.324219 L 15.007812 8.941406 L 15.007812 8.257812 C 16.132812 7.796875 16.878906 6.605469 16.878906 5.277344 C 16.878906 3.523438 15.59375 2.097656 14.011719 2.097656 Z M 17.207031 9.824219 L 8.675781 23.246094 C 10.496094 22.1875 12.585938 21.585938 14.707031 21.554688 C 16.855469 21.527344 18.984375 22.09375 20.851562 23.132812 L 21.257812 22.925781 L 19.332031 12.339844 C 19.128906 11.222656 18.363281 10.289062 17.304688 9.863281 Z M 20.851562 23.132812 L 20.234375 23.4375 L 20.105469 24.234375 C 18.457031 23.339844 16.589844 22.847656 14.726562 22.875 C 12.339844 22.90625 9.96875 23.773438 8.085938 25.242188 L 9.324219 32.710938 L 12.375 32.757812 L 11.140625 25.121094 L 16.878906 25.121094 L 15.644531 32.757812 L 18.695312 32.710938 L 20.105469 24.234375 C 21.535156 25.011719 22.800781 26.089844 23.75 27.402344 L 24.136719 27.9375 L 25.210938 27.167969 L 24.824219 26.632812 C 23.777344 25.183594 22.40625 23.996094 20.851562 23.132812 Z M 20.851562 23.132812 " fill-opacity="1" fill-rule="nonzero"/></g></svg>